<svg width="24" height="24" viewBox="0 0 24 24" fill="none" xmlns="http://www.w3.org/2000/svg">
<path d="M11.8468 5.58786C10.9942 5.58786 10.3031 4.89673 10.3031 4.04417V2.75586H13.3906V4.04417C13.3905 4.89664 12.6994 5.58786 11.8468 5.58786Z" fill="white"/>
<path d="M13.6623 0.833984L12.9963 1.18161C12.8252 1.27095 12.635 1.31755 12.442 1.31755H11.0154C10.5203 1.31755 10.1427 1.7608 10.2216 2.24961L10.3031 2.75548H13.3906C13.8687 2.24605 13.983 1.49455 13.6779 0.865953L13.6623 0.833984Z" fill="white"/>
<path d="M15.4959 7.46289V8.14352H8.19843V7.46289C8.19843 6.42789 9.03749 5.58789 10.0734 5.58789H13.6209C14.6569 5.58789 15.4959 6.42789 15.4959 7.46289Z" fill="white"/>
<path d="M15.4959 7.48633H8.19843V8.14258H15.4959V7.48633Z" fill="white"/>
<path d="M20.7222 23.6193H2.97217C2.45439 23.6193 2.03467 23.1996 2.03467 22.6818V10.8926H21.6596V22.6818C21.6597 23.1996 21.24 23.6193 20.7222 23.6193Z" fill="white"/>
<path d="M21.66 9.08008V10.8932H2.03436V9.08008C2.03436 8.56258 2.45436 8.14258 2.97186 8.14258H5.20405V8.49039C5.20405 8.74914 5.41405 8.95914 5.6728 8.95914H6.70874C6.96749 8.95914 7.17749 8.74914 7.17749 8.49039V8.14258H16.5169V8.49039C16.5169 8.74914 16.7269 8.95914 16.9856 8.95914H18.0215C18.2803 8.95914 18.4903 8.74914 18.4903 8.49039V8.14258H20.7225C21.24 8.14258 21.66 8.56258 21.66 9.08008Z" fill="white"/>
<path d="M7.17748 7.79492V8.49055C7.17748 8.7493 6.96748 8.9593 6.70873 8.9593H5.67279C5.41404 8.9593 5.20404 8.7493 5.20404 8.49055V7.79492C5.20404 7.53617 5.41404 7.32617 5.67279 7.32617H6.70873C6.96748 7.32617 7.17748 7.53617 7.17748 7.79492Z" fill="white"/>
<path d="M18.4903 7.79492V8.49055C18.4903 8.7493 18.2803 8.9593 18.0215 8.9593H16.9856C16.7268 8.9593 16.5168 8.7493 16.5168 8.49055V7.79492C16.5168 7.53617 16.7268 7.32617 16.9856 7.32617H18.0215C18.2803 7.32617 18.4903 7.53617 18.4903 7.79492Z" fill="white"/>
<path d="M9.24327 16.4043H4.50421C4.24537 16.4043 4.03546 16.1944 4.03546 15.9356V14.1855C4.03546 13.9267 4.24537 13.7168 4.50421 13.7168H9.24327V16.4043Z" fill="white"/>
<path d="M14.4511 13.7168H9.24329V16.4043H14.4511V13.7168Z" fill="white"/>
<path d="M19.1901 16.4043H14.451V13.7168H19.1901C19.4489 13.7168 19.6588 13.9267 19.6588 14.1855V15.9356C19.6588 16.1944 19.449 16.4043 19.1901 16.4043Z" fill="white"/>
<path d="M9.24327 21.916H4.50421C4.24537 21.916 4.03546 21.7061 4.03546 21.4473V19.6973C4.03546 19.4384 4.24537 19.2285 4.50421 19.2285H9.24327V21.916Z" fill="white"/>
<path d="M14.4511 19.2285H9.24329V21.916H14.4511V19.2285Z" fill="white"/>
<path d="M19.1901 21.916H14.451V19.2285H19.1901C19.4489 19.2285 19.6588 19.4384 19.6588 19.6973V21.4473C19.6588 21.7061 19.449 21.916 19.1901 21.916Z" fill="white"/>
<path d="M20.7221 22.9162H2.97223C2.84276 22.9162 2.73785 22.8113 2.73785 22.6818C2.73785 22.5524 2.84276 22.4475 2.97223 22.4475H20.4877V11.8301C20.4877 11.7006 20.5926 11.5957 20.7221 11.5957C20.8516 11.5957 20.9565 11.7006 20.9565 11.8301V22.6818C20.9565 22.8113 20.8516 22.9162 20.7221 22.9162Z" fill="white"/>
<path d="M20.7221 10.3541H4.41804C4.28857 10.3541 4.18367 10.2492 4.18367 10.1198C4.18367 9.9903 4.28857 9.88539 4.41804 9.88539H20.4877V9.08008C20.4877 8.95061 20.5926 8.8457 20.7221 8.8457C20.8516 8.8457 20.9565 8.95061 20.9565 9.08008V10.1198C20.9565 10.2492 20.8516 10.3541 20.7221 10.3541ZM3.48054 10.3541H2.97223C2.84276 10.3541 2.73785 10.2492 2.73785 10.1198C2.73785 9.9903 2.84276 9.88539 2.97223 9.88539H3.48054C3.61001 9.88539 3.71492 9.9903 3.71492 10.1198C3.71492 10.2492 3.61001 10.3541 3.48054 10.3541Z" fill="white"/>
<path d="M12.7334 4.00195C12.7334 3.87248 12.6285 3.76758 12.499 3.76758C12.3695 3.76758 12.2646 3.87248 12.2646 4.00195C12.2646 4.2322 12.0773 4.41942 11.8472 4.41942C11.617 4.41942 11.4297 4.23211 11.4297 4.00195C11.4297 3.87248 11.3248 3.76758 11.1953 3.76758C11.0658 3.76758 10.9609 3.87248 10.9609 4.00195C10.9609 4.49058 11.3584 4.88817 11.8472 4.88817C12.3359 4.88817 12.7334 4.49058 12.7334 4.00195Z" fill="black"/>
<path d="M2.03436 17.7656C2.1638 17.7656 2.26874 17.6607 2.26874 17.5312C2.26874 17.4018 2.1638 17.2969 2.03436 17.2969C1.90492 17.2969 1.79999 17.4018 1.79999 17.5312C1.79999 17.6607 1.90492 17.7656 2.03436 17.7656Z" fill="black"/>
<path d="M2.97186 23.8546H20.7225C21.3684 23.8546 21.8934 23.3287 21.8944 22.6828C21.8944 22.3935 21.8944 9.37842 21.8944 9.08058C21.8944 8.43436 21.3687 7.9087 20.7225 7.9087H19.8932V7.03364C19.8932 6.90417 19.7883 6.79926 19.6588 6.79926C19.5293 6.79926 19.4244 6.90417 19.4244 7.03364V7.9087H18.7247V7.79526C18.7247 7.40751 18.4093 7.09214 18.0215 7.09214H16.9856C16.5979 7.09214 16.2825 7.40751 16.2825 7.79526V7.9087H15.7303V7.46245C15.7303 7.17933 15.675 6.90464 15.5662 6.64495C15.5174 6.52964 15.3759 6.47058 15.2587 6.52026C15.1362 6.57248 15.0852 6.71208 15.134 6.82683C15.2184 7.02839 15.2615 7.24214 15.2615 7.46245V7.9087H12.0815V7.03364C12.0815 6.90417 11.9766 6.79926 11.8472 6.79926C11.7177 6.79926 11.6128 6.90417 11.6128 7.03364V7.9087H8.4328V7.46245C8.43467 6.55964 9.17061 5.8237 10.0734 5.82183C10.3339 5.82183 9.30805 5.82183 13.6209 5.82183C13.7165 5.82183 13.8112 5.83026 13.904 5.8462C14.0307 5.86776 14.1534 5.78151 14.1759 5.65589C14.1972 5.52839 14.1141 5.40755 13.9847 5.38401C13.8656 5.36339 13.7428 5.35308 13.6209 5.35308H13.0457C13.4006 5.02776 13.6249 4.56211 13.6249 4.04386V2.84273C14.0907 2.29223 14.2381 1.48617 13.8733 0.731951C13.8155 0.612608 13.6707 0.565264 13.5539 0.626201L12.8878 0.973826C12.7507 1.04536 12.5966 1.08323 12.442 1.08323H11.0153C10.3759 1.08323 9.88846 1.65614 9.99008 2.28698L10.0686 2.7742V4.04395C10.0686 4.5622 10.2929 5.02786 10.6478 5.35317H10.0734C8.90999 5.35317 7.96405 6.30005 7.96405 7.46255V7.9088H7.41186V7.79536C7.41186 7.40761 7.09649 7.09223 6.70874 7.09223H5.6728C5.28505 7.09223 4.96967 7.40761 4.96967 7.79536V7.9088H4.26908V7.03373C4.26908 6.90426 4.16418 6.79936 4.03471 6.79936C3.90524 6.79936 3.80033 6.90426 3.80033 7.03373V7.9088H2.97186C2.32564 7.9088 1.79999 8.43445 1.79999 9.08067C1.79999 10.0627 1.79999 15.9702 1.79999 16.5938C1.79999 16.7232 1.90499 16.8282 2.03436 16.8282C2.16374 16.8282 2.26874 16.7232 2.26874 16.5938V11.1282H21.4256V22.6829C21.4247 23.07 21.1097 23.385 20.7225 23.386H2.97186C2.58468 23.385 2.26968 23.07 2.26874 22.6829V18.4688C2.26874 18.3394 2.16374 18.2344 2.03436 18.2344C1.90499 18.2344 1.79999 18.3394 1.79999 18.4688V22.6829C1.79999 23.3287 2.32583 23.8546 2.97186 23.8546ZM11.0153 1.55189H12.442C12.6718 1.55189 12.901 1.49564 13.1046 1.38933L13.5435 1.16039C13.6906 1.62426 13.5947 2.1412 13.2844 2.52117H10.5026L10.4528 2.21236C10.3971 1.86586 10.6648 1.55189 11.0153 1.55189ZM10.5374 4.04376V2.98992H13.1561V4.04386C13.1561 4.76526 12.5697 5.35214 11.8485 5.35308H11.8448C11.1238 5.35204 10.5374 4.76517 10.5374 4.04376ZM16.7512 7.79526C16.7512 7.66608 16.8563 7.56089 16.9856 7.56089H18.0216C18.1509 7.56089 18.256 7.66608 18.256 7.79526V8.49089C18.256 8.62008 18.1509 8.72526 18.0216 8.72526H16.9856C16.8563 8.72526 16.7512 8.62008 16.7512 8.49089V7.79526ZM5.43842 7.79526C5.43842 7.66608 5.54352 7.56089 5.6728 7.56089H6.70874C6.83802 7.56089 6.94311 7.66608 6.94311 7.79526V8.49089C6.94311 8.62008 6.83802 8.72526 6.70874 8.72526H5.6728C5.54352 8.72526 5.43842 8.62008 5.43842 8.49089V7.79526ZM2.26874 10.6593V9.08058C2.26874 8.69283 2.58411 8.37745 2.97186 8.37745H3.80033V9.25233C3.80033 9.38179 3.90524 9.4867 4.03471 9.4867C4.16418 9.4867 4.26908 9.38179 4.26908 9.25233V8.37745H4.96967V8.49089C4.96967 8.87864 5.28505 9.19401 5.6728 9.19401H6.70874C7.09649 9.19401 7.41186 8.87864 7.41186 8.49089V8.37745H11.6128V9.25233C11.6128 9.38179 11.7177 9.4867 11.8472 9.4867C11.9766 9.4867 12.0815 9.38179 12.0815 9.25233V8.37745H16.2825V8.49089C16.2825 8.87864 16.5979 9.19401 16.9856 9.19401H18.0216C18.4094 9.19401 18.7248 8.87864 18.7248 8.49089V8.37745H19.4245V9.25233C19.4245 9.38179 19.5294 9.4867 19.6589 9.4867C19.7884 9.4867 19.8933 9.38179 19.8933 9.25233V8.37745H20.7226C21.1103 8.37745 21.4257 8.69283 21.4257 9.08058V10.6593H2.26874Z" fill="black"/>
<path d="M14.6437 6.17961C14.7417 6.25771 14.8911 6.24552 14.9738 6.14211C15.0535 6.0418 15.0376 5.89367 14.9363 5.81305C14.8378 5.7343 14.685 5.75211 14.6072 5.84961C14.5258 5.95039 14.5417 6.09739 14.6437 6.17961Z" fill="black"/>
<path d="M7.73312 12.5391C7.86259 12.5391 7.9675 12.4342 7.9675 12.3047C7.9675 12.1752 7.86259 12.0703 7.73312 12.0703H5.54565C5.41619 12.0703 5.31128 12.1752 5.31128 12.3047C5.31128 12.4342 5.41619 12.5391 5.54565 12.5391H7.73312Z" fill="black"/>
<path d="M12.941 12.5391C13.0705 12.5391 13.1754 12.4342 13.1754 12.3047C13.1754 12.1752 13.0705 12.0703 12.941 12.0703H10.7534C10.6239 12.0703 10.519 12.1752 10.519 12.3047C10.519 12.4342 10.6239 12.5391 10.7534 12.5391H12.941Z" fill="black"/>
<path d="M18.1487 12.5391C18.2781 12.5391 18.383 12.4342 18.383 12.3047C18.383 12.1752 18.2781 12.0703 18.1487 12.0703H15.9612C15.8317 12.0703 15.7268 12.1752 15.7268 12.3047C15.7268 12.4342 15.8317 12.5391 15.9612 12.5391H18.1487Z" fill="black"/>
<path d="M3.80157 14.1855V15.9359C3.80157 16.323 4.11657 16.639 4.5047 16.639H6.70501C6.83448 16.639 6.93939 16.534 6.93939 16.4046C6.93939 16.2752 6.83448 16.1702 6.70501 16.1702H4.5047C4.37532 16.1702 4.27032 16.0652 4.27032 15.9359V14.1855C4.27032 14.0571 4.37532 13.9512 4.5047 13.9512H9.00901V16.1702H8.58001C8.45064 16.1702 8.34564 16.2752 8.34564 16.4046C8.34564 16.534 8.45064 16.639 8.58001 16.639H19.1897C19.5779 16.639 19.8928 16.323 19.8928 15.9359V14.1855C19.8928 13.7984 19.5779 13.4824 19.1897 13.4824H4.5047C4.11657 13.4824 3.80157 13.7983 3.80157 14.1855ZM9.47776 13.9512H14.2167V16.1702H9.47776V13.9512ZM19.424 14.1855V15.9359C19.424 16.0652 19.3191 16.1702 19.1896 16.1702H14.6854V13.9512H19.1896C19.3191 13.9512 19.424 14.0571 19.424 14.1855Z" fill="black"/>
<path d="M7.6424 16.6387C7.77184 16.6387 7.87677 16.5337 7.87677 16.4043C7.87677 16.2749 7.77184 16.1699 7.6424 16.1699C7.51295 16.1699 7.40802 16.2749 7.40802 16.4043C7.40802 16.5337 7.51295 16.6387 7.6424 16.6387Z" fill="black"/>
<path d="M5.31128 17.8164C5.31128 17.9459 5.41619 18.0508 5.54565 18.0508H7.73312C7.86259 18.0508 7.9675 17.9459 7.9675 17.8164C7.9675 17.6869 7.86259 17.582 7.73312 17.582H5.54565C5.41619 17.582 5.31128 17.6869 5.31128 17.8164Z" fill="black"/>
<path d="M10.7534 17.582C10.6239 17.582 10.519 17.6869 10.519 17.8164C10.519 17.9459 10.6239 18.0508 10.7534 18.0508H12.941C13.0705 18.0508 13.1754 17.9459 13.1754 17.8164C13.1754 17.6869 13.0705 17.582 12.941 17.582H10.7534Z" fill="black"/>
<path d="M15.9612 17.582C15.8317 17.582 15.7268 17.6869 15.7268 17.8164C15.7268 17.9459 15.8317 18.0508 15.9612 18.0508H18.1487C18.2781 18.0508 18.383 17.9459 18.383 17.8164C18.383 17.6869 18.2781 17.582 18.1487 17.582H15.9612Z" fill="black"/>
<path d="M16.5596 20.8066H17.5503C17.6798 20.8066 17.7847 20.7017 17.7847 20.5723C17.7847 20.4428 17.6798 20.3379 17.5503 20.3379H16.5596C16.4302 20.3379 16.3253 20.4428 16.3253 20.5723C16.3253 20.7017 16.4302 20.8066 16.5596 20.8066Z" fill="black"/>
<path d="M3.80115 21.4473C3.80115 21.835 4.11652 22.1504 4.50427 22.1504H19.19C19.5778 22.1504 19.8931 21.835 19.8931 21.4473V19.6973C19.8931 19.3095 19.5778 18.9941 19.19 18.9941H4.50427C4.11652 18.9941 3.80115 19.3095 3.80115 19.6973V21.4473ZM9.47771 21.6817V19.4629H14.2167V21.6817H9.47771ZM19.4244 19.6973V21.4473C19.4244 21.5765 19.3193 21.6817 19.19 21.6817H14.6853V19.4629H19.19C19.3193 19.4629 19.4244 19.568 19.4244 19.6973ZM4.2699 19.6973C4.2699 19.5681 4.37499 19.4629 4.50427 19.4629H9.00896V21.6817H4.50427C4.37499 21.6817 4.2699 21.5765 4.2699 21.4473V19.6973Z" fill="black"/>
<path d="M7.44755 14.4671C7.35596 14.3755 7.20765 14.3755 7.11615 14.4671L6.42643 15.1569L6.16261 14.893C6.07102 14.8014 5.92271 14.8015 5.83121 14.893C5.73961 14.9846 5.73961 15.133 5.83121 15.2245L6.26077 15.6542C6.35227 15.7458 6.50068 15.7458 6.59218 15.6542L7.44764 14.7987C7.53914 14.707 7.53914 14.5586 7.44755 14.4671Z" fill="black"/>
<path d="M6.26068 21.1657C6.35218 21.2573 6.50058 21.2573 6.59208 21.1657L7.44755 20.3103C7.53914 20.2188 7.53914 20.0704 7.44755 19.9789C7.35596 19.8873 7.20765 19.8873 7.11615 19.9789L6.42643 20.6686L6.16261 20.4048C6.07102 20.3132 5.92271 20.3133 5.83121 20.4048C5.73961 20.4964 5.73961 20.6448 5.83121 20.7363L6.26068 21.1657Z" fill="black"/>
<path d="M12.6554 14.4671C12.5638 14.3755 12.4155 14.3755 12.324 14.4671L11.6343 15.1569L11.3704 14.893C11.2788 14.8014 11.1305 14.8015 11.039 14.893C10.9474 14.9846 10.9474 15.133 11.039 15.2245L11.4686 15.6542C11.5601 15.7458 11.7085 15.7458 11.8 15.6542L12.6555 14.7987C12.747 14.707 12.747 14.5586 12.6554 14.4671Z" fill="black"/>
<path d="M16.2468 15.2244L16.6763 15.654C16.7679 15.7456 16.9163 15.7456 17.0078 15.654L17.8632 14.7985C17.9548 14.707 17.9548 14.5586 17.8632 14.4671C17.7716 14.3755 17.6233 14.3755 17.5318 14.4671L16.8421 15.1569L16.5783 14.893C16.4867 14.8014 16.3384 14.8015 16.2469 14.893C16.1552 14.9844 16.1552 15.1329 16.2468 15.2244Z" fill="black"/>
<path d="M12.6554 19.9789C12.5638 19.8873 12.4155 19.8873 12.324 19.9789L11.6343 20.6686L11.3704 20.4048C11.2788 20.3132 11.1305 20.3133 11.039 20.4048C10.9474 20.4964 10.9474 20.6448 11.039 20.7363L11.4686 21.1659C11.5601 21.2575 11.7085 21.2575 11.8 21.1659L12.6555 20.3104C12.747 20.2188 12.747 20.0704 12.6554 19.9789Z" fill="black"/>
</svg>
