<svg width="24" height="23" viewBox="0 0 24 23" fill="none" xmlns="http://www.w3.org/2000/svg">
<path d="M22.4348 1.92H20.8696V0.96C20.8696 0.705392 20.7596 0.461212 20.5639 0.281177C20.3682 0.101143 20.1028 0 19.8261 0H18.7826C18.5059 0 18.2404 0.101143 18.0448 0.281177C17.8491 0.461212 17.7391 0.705392 17.7391 0.96V1.92H13.5652V0.96C13.5652 0.705392 13.4553 0.461212 13.2596 0.281177C13.0639 0.101143 12.7985 0 12.5217 0H11.4783C11.2015 0 10.9361 0.101143 10.7404 0.281177C10.5447 0.461212 10.4348 0.705392 10.4348 0.96V1.92H6.26087V0.96C6.26087 0.705392 6.15093 0.461212 5.95524 0.281177C5.75955 0.101143 5.49414 0 5.21739 0H4.17391C3.89717 0 3.63175 0.101143 3.43606 0.281177C3.24037 0.461212 3.13043 0.705392 3.13043 0.96V1.92H1.56522C1.1501 1.92 0.751977 2.07171 0.458442 2.34177C0.164906 2.61182 0 2.97809 0 3.36V20.64C0 21.0219 0.164906 21.3882 0.458442 21.6582C0.751977 21.9283 1.1501 22.08 1.56522 22.08H22.4348C22.8499 22.08 23.248 21.9283 23.5416 21.6582C23.8351 21.3882 24 21.0219 24 20.64V3.36C24 2.97809 23.8351 2.61182 23.5416 2.34177C23.248 2.07171 22.8499 1.92 22.4348 1.92ZM18.7826 0.96H19.8261V3.84H18.7826V0.96ZM11.4783 0.96H12.5217V2.3424C12.5217 2.3424 12.5217 2.3424 12.5217 2.4C12.5217 2.4576 12.5217 2.4 12.5217 2.4672V3.84H11.4783V0.96ZM4.17391 0.96H5.21739V3.84H4.17391V0.96ZM1.56522 2.88H3.13043V3.84C3.13043 4.09461 3.24037 4.33879 3.43606 4.51882C3.63175 4.69886 3.89717 4.8 4.17391 4.8H5.21739C5.49414 4.8 5.75955 4.69886 5.95524 4.51882C6.15093 4.33879 6.26087 4.09461 6.26087 3.84V2.88H10.4348V3.84C10.4348 4.09461 10.5447 4.33879 10.7404 4.51882C10.9361 4.69886 11.2015 4.8 11.4783 4.8H12.5217C12.7985 4.8 13.0639 4.69886 13.2596 4.51882C13.4553 4.33879 13.5652 4.09461 13.5652 3.84V2.88H17.7391V3.84C17.7391 4.09461 17.8491 4.33879 18.0448 4.51882C18.2404 4.69886 18.5059 4.8 18.7826 4.8H19.8261C20.1028 4.8 20.3682 4.69886 20.5639 4.51882C20.7596 4.33879 20.8696 4.09461 20.8696 3.84V2.88H22.4348C22.5732 2.88 22.7059 2.93057 22.8037 3.02059C22.9016 3.11061 22.9565 3.2327 22.9565 3.36V6.72H1.04348V3.36C1.04348 3.2327 1.09845 3.11061 1.19629 3.02059C1.29414 2.93057 1.42684 2.88 1.56522 2.88ZM22.4348 21.12H1.56522C1.42684 21.12 1.29414 21.0694 1.19629 20.9794C1.09845 20.8894 1.04348 20.7673 1.04348 20.64V7.68H22.9565V20.64C22.9565 20.7673 22.9016 20.8894 22.8037 20.9794C22.7059 21.0694 22.5732 21.12 22.4348 21.12Z" fill="#F7F7FF"/>
<path d="M17.3737 10.1468C16.3869 10.0889 15.3964 10.1796 14.4415 10.4156L11.3111 8.85076C11.235 8.81533 11.151 8.79688 11.0658 8.79688C10.9806 8.79688 10.8966 8.81533 10.8206 8.85076L8.96323 9.74356C8.89078 9.78051 8.82872 9.8325 8.78196 9.8954C8.73521 9.9583 8.70506 10.0304 8.69391 10.1059C8.68276 10.1814 8.69093 10.2583 8.71776 10.3303C8.74459 10.4024 8.78933 10.4678 8.84844 10.5212L10.7893 12.2396C10.0902 12.7676 9.33888 13.4012 8.49366 14.1596C8.46703 14.1234 8.43121 14.0937 8.38931 14.0732L6.73018 13.2284C6.65311 13.1905 6.5671 13.1708 6.47975 13.1708C6.3924 13.1708 6.30639 13.1905 6.22931 13.2284L5.31105 13.6796C5.24913 13.707 5.19402 13.7459 5.14914 13.7938C5.10426 13.8417 5.07057 13.8976 5.05018 13.958C5.02194 14.0153 5.00732 14.0774 5.00732 14.1404C5.00732 14.2033 5.02194 14.2655 5.05018 14.3228L6.50062 16.8764L8.0241 19.4204C8.0705 19.4943 8.13751 19.5556 8.21822 19.5977C8.29893 19.6399 8.39041 19.6615 8.48323 19.6604C8.57104 19.6641 8.65812 19.6441 8.73366 19.6028L9.65192 19.142C9.72639 19.1026 9.78916 19.047 9.83467 18.98C9.88018 18.9131 9.90701 18.8368 9.91279 18.758L10.0693 17.0204C10.0693 17.0204 10.0693 17.0204 10.0693 16.9628C11.2171 16.742 12.2084 16.5404 13.085 16.31L13.565 18.7388C13.5793 18.8138 13.6122 18.8849 13.661 18.9464C13.7099 19.008 13.7734 19.0585 13.8467 19.094C13.9192 19.1234 13.9971 19.1397 14.0763 19.142C14.1635 19.1412 14.2493 19.1215 14.3267 19.0844L16.1632 18.2396C16.2408 18.2053 16.3069 18.1524 16.3546 18.0865C16.4023 18.0207 16.4299 17.9442 16.4345 17.8652L16.8102 14.5916C17.5695 13.9897 18.2148 13.276 18.7197 12.4796C18.8634 12.2487 18.939 11.9872 18.939 11.7212C18.939 11.4551 18.8634 11.1937 18.7197 10.9628C18.5909 10.7315 18.3992 10.5349 18.1633 10.3919C17.9275 10.2489 17.6555 10.1645 17.3737 10.1468ZM10.0693 10.2812L11.0293 9.81076L13.1163 10.8476C12.5967 11.0705 12.1007 11.3373 11.6345 11.6444L10.0693 10.2812ZM6.44844 14.1212L7.71105 14.7644C7.42931 15.014 7.17888 15.2444 6.93888 15.4748L6.26062 14.2748L6.44844 14.1212ZM8.71279 18.47L8.0241 17.2796L9.06757 17.1068L8.96323 18.3644L8.71279 18.47ZM14.4415 17.8748L14.0971 15.9548C14.6335 15.7989 15.1538 15.5997 15.6519 15.3596L15.4119 17.51L14.4415 17.8748ZM17.8015 11.9516C17.3112 12.6851 16.6863 13.3347 15.9545 13.8716C14.3163 15.0908 12.3963 15.4556 9.2241 16.0508C8.63975 16.23 8.0867 16.3516 7.56497 16.4156V16.5884V16.3868C7.91975 16.0412 8.3267 15.6668 8.7754 15.2636C11.1232 13.1996 12.5319 11.9612 14.5458 11.4236C15.285 11.226 16.0509 11.1258 16.8206 11.126H17.3424C17.4521 11.1311 17.5584 11.1632 17.6502 11.2189C17.7419 11.2746 17.8158 11.3519 17.8641 11.4428C17.9096 11.5307 17.9306 11.6276 17.9251 11.7248C17.9196 11.822 17.8879 11.9165 17.8328 11.9996L17.8015 11.9516Z" fill="#F7F7FF"/>
</svg>
