<svg width="24" height="24" viewBox="0 0 24 24" fill="none" xmlns="http://www.w3.org/2000/svg">
<path d="M5.04149 3C5.22012 2.6906 5.55025 2.5 5.90751 2.5H9.75281C10.11 2.5 10.4402 2.6906 10.6188 3L12.5415 6.33013C12.7201 6.63953 12.7201 7.02073 12.5415 7.33013L10.6188 10.6603C10.4402 10.9697 10.11 11.1603 9.75281 11.1603H5.90751C5.55025 11.1603 5.22012 10.9697 5.04149 10.6603L3.11884 7.33013C2.9402 7.02073 2.9402 6.63953 3.11884 6.33013L5.04149 3Z" fill="white"/>
<path d="M5.12157 13.2266C5.3002 12.9172 5.63033 12.7266 5.98759 12.7266H9.83289C10.1902 12.7266 10.5203 12.9172 10.6989 13.2266L12.6216 16.5568C12.8002 16.8662 12.8002 17.2474 12.6216 17.5568L10.6989 20.8869C10.5203 21.1963 10.1902 21.3869 9.83289 21.3869H5.98759C5.63033 21.3869 5.3002 21.1963 5.12157 20.8869L3.19892 17.5568C3.02028 17.2474 3.02028 16.8662 3.19892 16.5568L5.12157 13.2266Z" fill="white"/>
<path d="M14.1216 8.22656C14.3002 7.91716 14.6304 7.72656 14.9876 7.72656H18.8329C19.1902 7.72656 19.5203 7.91716 19.6989 8.22656L21.6216 11.5567C21.8002 11.8661 21.8002 12.2473 21.6216 12.5567L19.6989 15.8868C19.5203 16.1962 19.1902 16.3868 18.8329 16.3868H14.9876C14.6304 16.3868 14.3002 16.1962 14.1216 15.8868L12.1989 12.5567C12.0203 12.2473 12.0203 11.8661 12.1989 11.5567L14.1216 8.22656Z" fill="white"/>
</svg>
