<svg width="100" height="77" viewBox="0 0 100 77" fill="none" xmlns="http://www.w3.org/2000/svg">
<path d="M23.5956 42.1623V62.4889H12.049V11.8223H23.5956V32.0289H39.929V11.8223H51.4756V62.4889H39.929V42.1623H23.5956Z" fill="black"/>
<path d="M39.8845 11.8223H57.9979C62.8679 11.8223 66.8395 13.1223 69.9112 15.7223C72.9812 18.3223 74.5179 22.0389 74.5179 26.8689C74.5179 30.5939 73.5862 33.7156 71.7245 36.2356C69.8612 38.7523 67.3329 40.5223 64.1379 41.5489L81.5845 62.4889H66.9045L51.4312 42.4689V62.4889H39.8845V11.8223ZM51.4312 34.3023H52.7779C53.8445 34.3023 54.7445 34.2823 55.4779 34.2423C56.2145 34.1989 57.0545 34.0539 57.9979 33.8089C58.9395 33.5656 59.6979 33.2189 60.2712 32.7689C60.8445 32.3156 61.3345 31.6606 61.7445 30.8023C62.1529 29.9406 62.3579 28.8956 62.3579 27.6689C62.3579 26.4389 62.1529 25.3939 61.7445 24.5356C61.3345 23.6789 60.8445 23.0256 60.2712 22.5756C59.6979 22.1223 58.9395 21.7739 57.9979 21.5289C57.0545 21.2806 56.2145 21.1356 55.4779 21.0956C54.7445 21.0556 53.8445 21.0356 52.7779 21.0356H51.4312V34.3023Z" fill="black"/>
<mask id="mask0_696_17" style="mask-type:luminance" maskUnits="userSpaceOnUse" x="58" y="46" width="15" height="14">
<path d="M58.22 46.0098H72.52V59.0364H58.22V46.0098Z" fill="white"/>
</mask>
<g mask="url(#mask0_696_17)">
<mask id="mask1_696_17" style="mask-type:luminance" maskUnits="userSpaceOnUse" x="58" y="46" width="15" height="14">
<path d="M65.345 46.0098C61.41 46.0098 58.22 48.9264 58.22 52.5231C58.22 56.1198 61.41 59.0364 65.345 59.0364C69.28 59.0364 72.4683 56.1198 72.4683 52.5231C72.4683 48.9264 69.28 46.0098 65.345 46.0098Z" fill="white"/>
</mask>
<g mask="url(#mask1_696_17)">
<path d="M58.22 46.0098H72.4683V59.0364H58.22V46.0098Z" fill="white"/>
</g>
</g>
<mask id="mask2_696_17" style="mask-type:luminance" maskUnits="userSpaceOnUse" x="0" y="-8" width="35" height="36">
<path d="M0 -8H34.9867V27.4133H0V-8Z" fill="white"/>
</mask>
<g mask="url(#mask2_696_17)">
<mask id="mask3_696_17" style="mask-type:luminance" maskUnits="userSpaceOnUse" x="-7" y="-14" width="48" height="48">
<path d="M9.80165 -13.7559L40.885 1.87748L25.0683 33.3258L-6.01501 17.6925L9.80165 -13.7559Z" fill="white"/>
</mask>
<g mask="url(#mask3_696_17)">
<mask id="mask4_696_17" style="mask-type:luminance" maskUnits="userSpaceOnUse" x="0" y="-8" width="35" height="36">
<path d="M25.3433 -5.93956C16.76 -10.2562 6.27498 -6.74289 1.92331 1.91044C-2.42836 10.5621 1.00164 21.0754 9.58498 25.3921C18.1683 29.7104 28.655 26.1954 33.0066 17.5438C37.3583 8.89044 33.9266 -1.62289 25.3433 -5.93956Z" fill="white"/>
</mask>
<g mask="url(#mask4_696_17)">
<path d="M9.80163 -13.7559L40.885 1.87747L25.13 33.2041L-5.95337 17.5708L9.80163 -13.7559Z" fill="white"/>
</g>
</g>
</g>
<mask id="mask5_696_17" style="mask-type:luminance" maskUnits="userSpaceOnUse" x="89" y="50" width="11" height="11">
<path d="M89.5717 50.8672H99.45V60.7455H89.5717V50.8672Z" fill="white"/>
</mask>
<g mask="url(#mask5_696_17)">
<mask id="mask6_696_17" style="mask-type:luminance" maskUnits="userSpaceOnUse" x="89" y="50" width="11" height="11">
<path d="M94.51 50.8672C91.7833 50.8672 89.5717 53.0772 89.5717 55.8055C89.5717 58.5339 91.7833 60.7455 94.51 60.7455C97.2383 60.7455 99.45 58.5339 99.45 55.8055C99.45 53.0772 97.2383 50.8672 94.51 50.8672Z" fill="white"/>
</mask>
<g mask="url(#mask6_696_17)">
<path d="M89.5717 50.8672H99.45V60.7455H89.5717V50.8672Z" fill="white"/>
</g>
</g>
<path d="M18.2267 64.8125H19.4401V70.8258H18.1601V66.8592L16.7267 68.8658H15.7001L14.2467 66.9192V70.8258H12.9601V64.8125H14.1801L16.2134 67.5858L18.2267 64.8125Z" fill="black"/>
<path d="M25.0914 64.8125L27.6047 70.8258H26.2114L25.6714 69.5392H23.118L22.5847 70.8258H21.1847L23.6914 64.8125H25.0914ZM25.1847 68.3658L24.398 66.4725L23.6114 68.3658H25.1847Z" fill="black"/>
<path d="M33.466 64.8125H34.746V70.8258H33.526L30.6327 66.8992V70.8258H29.3527V64.8125H30.5527L33.466 68.7658V64.8125Z" fill="black"/>
<path d="M40.3985 64.8125L42.9119 70.8258H41.5185L40.9785 69.5392H38.4252L37.8919 70.8258H36.4919L38.9985 64.8125H40.3985ZM40.4919 68.3658L39.7052 66.4725L38.9185 68.3658H40.4919Z" fill="black"/>
<path d="M47.6332 67.4246H49.9065V69.6313C49.5682 70.0579 49.1932 70.3829 48.7798 70.6046C48.3665 70.8263 47.9332 70.9379 47.4798 70.9379C47.0748 70.9379 46.6898 70.8529 46.3265 70.6846C45.9665 70.5163 45.6532 70.2913 45.3865 70.0113C45.1198 69.7279 44.9082 69.3979 44.7532 69.0246C44.5965 68.6479 44.5198 68.2479 44.5198 67.8246C44.5198 67.3979 44.5965 66.9979 44.7532 66.6246C44.9082 66.2513 45.1198 65.9246 45.3865 65.6446C45.6532 65.3613 45.9665 65.1363 46.3265 64.9713C46.6898 64.8079 47.0748 64.7246 47.4798 64.7246C47.8665 64.7246 48.2298 64.7963 48.5732 64.9379C48.9148 65.0813 49.2465 65.3163 49.5665 65.6446L48.8198 66.5513C48.5832 66.3296 48.3615 66.1813 48.1532 66.1046C47.9432 66.0296 47.7232 65.9913 47.4932 65.9913C47.2532 65.9913 47.0282 66.0413 46.8198 66.1379C46.6148 66.2313 46.4365 66.3613 46.2865 66.5246C46.1348 66.6896 46.0148 66.8829 45.9265 67.1046C45.8365 67.3279 45.7932 67.5679 45.7932 67.8246C45.7932 68.0779 45.8365 68.3163 45.9265 68.5379C46.0148 68.7563 46.1348 68.9496 46.2865 69.1179C46.4365 69.2829 46.6148 69.4146 46.8198 69.5113C47.0282 69.6046 47.2532 69.6513 47.4932 69.6513C47.7015 69.6513 47.9082 69.6146 48.1132 69.5379C48.3215 69.4629 48.5298 69.3379 48.7398 69.1646V68.5113H47.6332V67.4246Z" fill="black"/>
<path d="M51.7646 64.8125H55.5246V65.9858H53.0513V67.0725H55.2246V68.2392H53.0513V69.6658H55.5246V70.8258H51.7646V64.8125Z" fill="black"/>
<path d="M62.7575 64.8125H63.9708V70.8258H62.6908V66.8592L61.2575 68.8658H60.2308L58.7775 66.9192V70.8258H57.4908V64.8125H58.7108L60.7442 67.5858L62.7575 64.8125Z" fill="black"/>
<path d="M65.9355 64.8125H69.6955V65.9858H67.2222V67.0725H69.3955V68.2392H67.2222V69.6658H69.6955V70.8258H65.9355V64.8125Z" fill="black"/>
<path d="M75.775 64.8125H77.055V70.8258H75.835L72.9417 66.8992V70.8258H71.6617V64.8125H72.8617L75.775 68.7658V64.8125Z" fill="black"/>
<path d="M78.8075 64.8125H83.1608V65.9858H81.6275V70.8258H80.3408V65.9858H78.8075V64.8125Z" fill="black"/>
<path d="M35.3782 75.6643C35.3782 75.771 35.3549 75.871 35.3116 75.9643C35.2666 76.0543 35.2016 76.1343 35.1182 76.2043C34.9532 76.3427 34.7416 76.411 34.4849 76.411C34.2799 76.411 34.0949 76.371 33.9316 76.291C33.7716 76.2077 33.6532 76.096 33.5782 75.9577L33.8982 75.791C33.9466 75.876 34.0216 75.9427 34.1249 75.991C34.2266 76.036 34.3466 76.0577 34.4849 76.0577C34.8316 76.0577 35.0049 75.9277 35.0049 75.6643C35.0049 75.611 34.9949 75.5677 34.9782 75.531C34.9599 75.496 34.9332 75.4627 34.8982 75.431C34.8082 75.361 34.6532 75.296 34.4316 75.2377C34.2982 75.2027 34.1849 75.1643 34.0916 75.1243C33.9982 75.0843 33.9199 75.036 33.8582 74.9777C33.7066 74.8577 33.6316 74.6977 33.6316 74.4977C33.6316 74.396 33.6516 74.301 33.6916 74.211C33.7316 74.1227 33.7866 74.0477 33.8582 73.9843C33.9332 73.9177 34.0199 73.8693 34.1182 73.8377C34.2149 73.8077 34.3249 73.791 34.4449 73.791C34.6216 73.791 34.7849 73.8243 34.9316 73.891C35.0782 73.9577 35.1882 74.0543 35.2649 74.1777L34.9782 74.3577C34.9066 74.2743 34.8249 74.2143 34.7316 74.1777C34.6416 74.1427 34.5466 74.1243 34.4449 74.1243C34.3732 74.1243 34.3066 74.1377 34.2449 74.1643C34.1866 74.1877 34.1382 74.2143 34.0982 74.2443C34.0616 74.276 34.0349 74.3143 34.0182 74.3577C34.0049 74.3977 33.9982 74.4427 33.9982 74.491C33.9982 74.5227 34.0016 74.5543 34.0116 74.5843C34.0249 74.616 34.0482 74.6493 34.0849 74.6843C34.1199 74.721 34.1716 74.7543 34.2382 74.7843C34.3082 74.816 34.4049 74.8477 34.5249 74.8777C34.6716 74.9143 34.7932 74.9543 34.8916 74.9977C34.9882 75.0377 35.0716 75.0877 35.1382 75.1443C35.2982 75.2743 35.3782 75.4477 35.3782 75.6643Z" fill="#373737"/>
<path d="M38.4565 75.1842L37.5565 73.8242H38.0032L38.6432 74.7842L39.2832 73.8242H39.7365L38.8365 75.1842V76.3776H38.4565V75.1842Z" fill="#373737"/>
<path d="M43.6507 75.6643C43.6507 75.771 43.6274 75.871 43.584 75.9643C43.539 76.0543 43.474 76.1343 43.3907 76.2043C43.2257 76.3427 43.014 76.411 42.7574 76.411C42.5524 76.411 42.3674 76.371 42.204 76.291C42.044 76.2077 41.9257 76.096 41.8507 75.9577L42.1707 75.791C42.219 75.876 42.294 75.9427 42.3974 75.991C42.499 76.036 42.619 76.0577 42.7574 76.0577C43.104 76.0577 43.2774 75.9277 43.2774 75.6643C43.2774 75.611 43.2674 75.5677 43.2507 75.531C43.2324 75.496 43.2057 75.4627 43.1707 75.431C43.0807 75.361 42.9257 75.296 42.704 75.2377C42.5707 75.2027 42.4574 75.1643 42.364 75.1243C42.2707 75.0843 42.1924 75.036 42.1307 74.9777C41.979 74.8577 41.904 74.6977 41.904 74.4977C41.904 74.396 41.924 74.301 41.964 74.211C42.004 74.1227 42.059 74.0477 42.1307 73.9843C42.2057 73.9177 42.2924 73.8693 42.3907 73.8377C42.4874 73.8077 42.5974 73.791 42.7174 73.791C42.894 73.791 43.0574 73.8243 43.204 73.891C43.3507 73.9577 43.4607 74.0543 43.5374 74.1777L43.2507 74.3577C43.179 74.2743 43.0974 74.2143 43.004 74.1777C42.914 74.1427 42.819 74.1243 42.7174 74.1243C42.6457 74.1243 42.579 74.1377 42.5174 74.1643C42.459 74.1877 42.4107 74.2143 42.3707 74.2443C42.334 74.276 42.3074 74.3143 42.2907 74.3577C42.2774 74.3977 42.2707 74.4427 42.2707 74.491C42.2707 74.5227 42.274 74.5543 42.284 74.5843C42.2974 74.616 42.3207 74.6493 42.3574 74.6843C42.3924 74.721 42.444 74.7543 42.5107 74.7843C42.5807 74.816 42.6774 74.8477 42.7974 74.8777C42.944 74.9143 43.0657 74.9543 43.164 74.9977C43.2607 75.0377 43.344 75.0877 43.4107 75.1443C43.5707 75.2743 43.6507 75.4477 43.6507 75.6643Z" fill="#373737"/>
<path d="M46.5023 74.1642H45.8157V73.8242H47.5757V74.1642H46.8823V76.3776H46.5023V74.1642Z" fill="#373737"/>
<path d="M51.3984 73.8242V74.1642H50.2117V74.8576H51.2717V75.2109H50.2117V76.0309H51.3984V76.3776H49.8384V73.8242H51.3984Z" fill="#373737"/>
<path d="M55.9517 73.8242H56.3317V76.3776H55.9584V74.4176L55.2117 75.4442H54.9184L54.1717 74.4176V76.3776H53.7917V73.8242H54.1717L55.0651 75.0509L55.9517 73.8242Z" fill="#373737"/>
<mask id="mask7_696_17" style="mask-type:luminance" maskUnits="userSpaceOnUse" x="9" y="12" width="15" height="15">
<path d="M9.93164 12.0547H23.8933V26.1164H9.93164V12.0547Z" fill="white"/>
</mask>
<g mask="url(#mask7_696_17)">
<path d="M9.99834 18.5088C10.14 16.8838 10.845 15.3038 12.0017 14.1455C12.0233 14.1221 12.0483 14.0971 12.07 14.0755C13.805 12.3938 16.4567 11.7221 18.785 12.3755C21.1133 13.0288 23.0283 14.9805 23.6333 17.3205C23.9917 18.6988 23.8867 20.1821 23.3883 21.5088C22.8783 22.8821 21.95 24.0455 20.7267 24.8521C20.1517 25.2321 19.5133 25.5188 18.8467 25.6955C18.8183 25.0571 18.8167 24.4038 19.0267 23.8021C19.285 23.0771 19.8167 22.5021 20.2667 21.8921C20.73 21.2671 21.0883 20.5621 21.2967 19.8088C21.5083 19.0488 21.5583 18.2371 21.3883 17.4621C21.16 16.4255 20.5583 15.4621 19.65 14.8955C18.8633 14.4038 17.9133 14.2138 16.9967 14.2305C15.88 14.2538 14.7383 14.5955 13.915 15.3505C13.0933 16.1055 12.6483 17.3138 12.9683 18.3871C13.03 18.5905 13.115 18.8038 13.06 19.0088C13.0233 19.1405 12.935 19.2488 12.8467 19.3538C12.59 19.6571 12.335 19.9588 12.0783 20.2621C11.9983 20.3571 11.9117 20.4671 11.9317 20.5921C11.9617 20.8038 12.2483 20.8571 12.3867 21.0205C12.6233 21.3005 12.335 21.7371 12.4367 22.0905C12.4683 22.1921 12.53 22.2855 12.5633 22.3855C12.6817 22.7405 12.4367 23.1705 12.6317 23.4905C12.7817 23.7321 13.1133 23.7821 13.3967 23.7521C13.68 23.7188 13.965 23.6288 14.2433 23.6938C14.6317 23.7821 14.905 24.1538 14.9933 24.5438C15.0817 24.9321 15.0233 25.3371 14.9633 25.7321C12.6433 25.0538 10.745 23.0821 10.165 20.7338C9.98501 20.0088 9.93167 19.2571 9.99834 18.5088Z" fill="black"/>
</g>
<mask id="mask8_696_17" style="mask-type:luminance" maskUnits="userSpaceOnUse" x="13" y="14" width="9" height="13">
<path d="M13.2267 14.6133H21.3334V26.1149H13.2267V14.6133Z" fill="white"/>
</mask>
<g mask="url(#mask8_696_17)">
<path d="M14.785 18.7043C14.7433 18.8343 14.6233 18.9293 14.4817 18.9293C14.3067 18.9293 14.1633 18.7877 14.1633 18.6093C14.1633 18.5343 14.19 18.4677 14.2317 18.4127L13.9317 17.6793C13.7517 17.626 13.6183 17.461 13.6183 17.2643C13.6183 17.026 13.8133 16.8343 14.0483 16.8343C14.065 16.8343 14.08 16.8343 14.0933 16.836L14.985 15.8677C14.9717 15.8227 14.9633 15.7777 14.9633 15.7277C14.9633 15.4893 15.1567 15.2977 15.3933 15.2977C15.5233 15.2977 15.6433 15.356 15.7217 15.451L17.1317 15.0527C17.1767 14.8643 17.35 14.7227 17.5517 14.7227C17.785 14.7227 17.975 14.906 17.9833 15.1393L19.4883 15.761C19.5467 15.6977 19.63 15.656 19.725 15.656C19.9 15.656 20.0433 15.7977 20.0433 15.976C20.0433 16.061 20.01 16.1393 19.955 16.1977L20.53 17.1477C20.5917 17.1143 20.6633 17.0943 20.7383 17.0943C20.9767 17.0943 21.1683 17.2893 21.1683 17.526C21.1683 17.7643 20.975 17.956 20.7383 17.956C20.705 17.956 20.675 17.9543 20.6433 17.946L20.135 19.101C20.2333 19.1793 20.2967 19.301 20.2967 19.4377C20.2967 19.676 20.1017 19.8677 19.8667 19.8677C19.835 19.8677 19.805 19.8643 19.7767 19.8593L19.255 20.8843C19.3333 20.9627 19.38 21.071 19.38 21.1893C19.38 21.4293 19.185 21.621 18.95 21.621C18.9133 21.621 18.88 21.6143 18.85 21.6093L18.1833 22.6677C18.2967 22.746 18.3683 22.876 18.3683 23.0243C18.3683 23.2627 18.175 23.4543 17.9383 23.4543C17.93 23.4543 17.9217 23.4543 17.9133 23.4543L17.755 24.621L17.7833 25.9543C17.7833 25.991 17.755 26.021 17.7167 26.0243C17.68 26.0243 17.65 25.996 17.6467 25.9577L17.6183 24.6127L17.78 23.4243C17.6183 23.3593 17.505 23.2043 17.505 23.0243C17.505 22.7843 17.7 22.5927 17.935 22.5927C17.9767 22.5927 18.0183 22.5993 18.0583 22.6093L18.7217 21.556C18.6017 21.4843 18.5217 21.3543 18.5167 21.2043L17.9083 21.1127C17.85 21.1893 17.7583 21.2393 17.655 21.2393C17.48 21.2393 17.335 21.0977 17.335 20.921C17.335 20.7793 17.4267 20.6627 17.555 20.6177L17.6683 19.696C17.4467 19.676 17.275 19.4927 17.275 19.2643C17.275 19.2343 17.2767 19.206 17.2833 19.1793L16.63 18.7177C16.5683 18.7477 16.5017 18.7677 16.43 18.7677C16.2983 18.7677 16.1817 18.7093 16.105 18.6177L14.785 18.7043ZM20.3083 17.4643C20.3167 17.401 20.335 17.3427 20.3683 17.2893L17.88 15.4277C17.85 15.4643 17.8167 15.4927 17.775 15.5177L18.45 16.9643C18.6183 16.9777 18.7583 17.0893 18.8167 17.2427L20.3083 17.4643ZM17.6517 15.5693C17.6183 15.5777 17.585 15.581 17.5517 15.581C17.4517 15.581 17.36 15.5477 17.285 15.4893L16.4317 16.5693C16.4883 16.6427 16.5217 16.7343 16.5217 16.8343C16.5217 16.8727 16.515 16.911 16.505 16.951L18 17.2693C18.0433 17.126 18.16 17.0177 18.3083 16.9777L17.6517 15.5693ZM17.9833 17.401L16.4483 17.0727C16.3967 17.1527 16.315 17.211 16.2233 17.2427L16.3733 17.9043C16.39 17.901 16.4067 17.901 16.4267 17.901C16.605 17.901 16.7567 18.006 16.8217 18.1593L18.0133 17.551C17.9933 17.506 17.9833 17.4527 17.9833 17.401ZM15.9983 18.2727L14.38 17.5427C14.3067 17.6293 14.2017 17.6877 14.0817 17.696L14.34 18.326C14.3817 18.3043 14.43 18.2927 14.4817 18.2927C14.6433 18.2927 14.7767 18.4143 14.7967 18.571L16.0233 18.4877C16.0067 18.4393 15.9967 18.3877 15.9967 18.3343C15.9933 18.3127 15.9967 18.2927 15.9983 18.2727ZM14.2383 16.8777C14.3817 16.9477 14.48 17.0943 14.48 17.2643C14.48 17.3227 14.4683 17.376 14.4483 17.426L16.0383 18.1427C16.0817 18.0543 16.155 17.981 16.2433 17.9393L16.09 17.261C15.8517 17.261 15.66 17.0677 15.66 16.831C15.66 16.7277 15.6967 16.6343 15.755 16.561L15.4983 16.1443C15.465 16.1527 15.43 16.1593 15.3933 16.1593C15.255 16.1593 15.1317 16.0927 15.0517 15.9927L14.2383 16.8777ZM15.6233 16.0927L15.8567 16.4693C15.9233 16.426 16.005 16.401 16.09 16.401C16.1817 16.401 16.265 16.4277 16.335 16.476L17.1933 15.386C17.155 15.3277 17.13 15.261 17.1233 15.1893L15.7933 15.5643C15.8133 15.6143 15.8233 15.6677 15.8233 15.726C15.8233 15.881 15.7433 16.0143 15.6233 16.0927ZM17.9667 15.2727C17.96 15.286 17.9583 15.301 17.9517 15.3143L20.355 17.111L19.8417 16.2643C19.805 16.2777 19.7667 16.286 19.725 16.286C19.55 16.286 19.405 16.1443 19.405 15.9677C19.405 15.9343 19.41 15.901 19.4217 15.8693L17.9667 15.2727ZM20.5167 17.8893C20.4133 17.8293 20.335 17.726 20.3133 17.6043L18.8433 17.3843C18.8433 17.386 18.8433 17.3927 18.8433 17.3943C18.8433 17.4943 18.8083 17.5893 18.75 17.6627L19.7017 19.0293C19.7517 19.0093 19.805 18.9977 19.86 18.9977C19.9133 18.9977 19.9667 19.0093 20.0133 19.026L20.5167 17.8893ZM18.5333 21.0643C18.585 20.8843 18.75 20.751 18.9467 20.751C19.0167 20.751 19.0833 20.7677 19.1417 20.7977L19.6467 19.8043C19.5167 19.7293 19.43 19.5893 19.43 19.4293C19.43 19.296 19.4917 19.176 19.585 19.096L18.65 17.751C18.6083 17.7793 18.56 17.7977 18.51 17.8127L17.93 18.896C18.05 18.9727 18.13 19.106 18.13 19.2593C18.13 19.4627 17.9883 19.6343 17.8 19.6793L17.6883 20.596C17.8467 20.6143 17.9717 20.7477 17.9717 20.9127C17.9717 20.9343 17.9683 20.956 17.9633 20.9793L18.5333 21.0643ZM17.7017 18.8293C17.7417 18.8293 17.7767 18.8343 17.81 18.8427L18.3583 17.821C18.2467 17.806 18.15 17.7477 18.08 17.6677L16.855 18.2927C16.855 18.306 16.8567 18.3177 16.8567 18.331C16.8567 18.446 16.8133 18.551 16.7383 18.6293L17.3267 19.046C17.4017 18.9177 17.5433 18.8293 17.7017 18.8293Z" fill="black"/>
</g>
<mask id="mask9_696_17" style="mask-type:luminance" maskUnits="userSpaceOnUse" x="26" y="17" width="4" height="3">
<path d="M26.0267 17.0273H29.0133V19.734H26.0267V17.0273Z" fill="white"/>
</mask>
<g mask="url(#mask9_696_17)">
<path d="M27.375 17.0273C28.0533 17.0273 28.6267 17.5757 28.6267 18.279C28.6267 18.9823 28.0783 19.529 27.375 19.529C26.6983 19.529 26.125 18.9823 26.125 18.279C26.125 17.5757 26.6717 17.0273 27.375 17.0273Z" fill="#EB6F56"/>
</g>
<mask id="mask10_696_17" style="mask-type:luminance" maskUnits="userSpaceOnUse" x="27" y="30" width="4" height="4">
<path d="M27.7333 30.4004H30.72V33.3471H27.7333V30.4004Z" fill="white"/>
</mask>
<g mask="url(#mask10_696_17)">
<path d="M30.215 32.322C30.32 32.4254 30.3983 32.557 30.3983 32.687C30.3983 33.3637 29.3817 33.3637 29.3817 32.687C29.3817 32.557 29.4333 32.4254 29.5383 32.322C29.1467 31.722 28.6 31.4104 28.0267 31.3054V30.707C28.8867 30.837 29.72 31.3587 30.215 32.322Z" fill="#EB6F56"/>
</g>
<mask id="mask11_696_17" style="mask-type:luminance" maskUnits="userSpaceOnUse" x="24" y="30" width="4" height="4">
<path d="M24.7467 30.4004H27.7334V33.3471H24.7467V30.4004Z" fill="white"/>
</mask>
<g mask="url(#mask11_696_17)">
<path d="M25.9167 32.3491C26.2284 32.6608 26.02 33.2074 25.5784 33.2074C25.1084 33.2074 24.9 32.6358 25.2384 32.3224C25.76 31.3591 26.5684 30.8374 27.4284 30.7324V31.3324C26.88 31.4108 26.3334 31.7491 25.9167 32.3491Z" fill="#EB6F56"/>
</g>
<path d="M28.0267 30.7326C27.8183 30.7076 27.6367 30.7076 27.4283 30.7326V28.7793C27.6367 28.7793 27.8183 28.7793 28.0267 28.7793V30.7326Z" fill="#EB6F56"/>
<path d="M28.0267 31.3325V31.8275C28.4183 32.1142 28.21 32.7392 27.74 32.7392C27.245 32.7392 27.0633 32.1142 27.4533 31.8275V31.3325C27.6367 31.3058 27.845 31.3058 28.0267 31.3325Z" fill="#EB6F56"/>
<path d="M28.0267 30.7316V31.3316C27.8183 31.305 27.6367 31.305 27.4283 31.3316V30.7316C27.6367 30.7066 27.845 30.7066 28.0267 30.7316Z" fill="#EB6F56"/>
<mask id="mask12_696_17" style="mask-type:luminance" maskUnits="userSpaceOnUse" x="23" y="23" width="5" height="7">
<path d="M23.515 23.5742H27.7333V29.1209H23.515V23.5742Z" fill="white"/>
</mask>
<g mask="url(#mask12_696_17)">
<path d="M24.1183 24.3494C24.3267 24.9744 24.5883 25.3928 24.8483 25.6011C25.865 28.0761 25.8383 28.0761 26.2283 28.0761H27.4533V28.7794C26.4367 28.7528 25.4733 28.5711 25.2917 28.2061L23.4933 23.8294L23.9617 23.6211C23.9883 23.8294 24.04 24.0628 24.1183 24.3494Z" fill="#EB6F56"/>
</g>
<path d="M30.2417 28.0762C30.2417 28.4928 29.1733 28.7278 28.0533 28.7528V28.0762H30.2417Z" fill="#EB6F56"/>
<path d="M28.0267 28.0755V28.7522C27.8183 28.7522 27.6367 28.7522 27.4283 28.7522V28.0488H28.0267V28.0755Z" fill="#EB6F56"/>
<path d="M23.9616 23.5935C23.7533 22.0302 24.9516 21.9002 25.6033 23.8535C26.125 25.4435 25.525 26.1468 24.875 25.5735C24.64 25.0268 24.3783 24.3752 24.04 23.5668L23.9616 23.5935Z" fill="#EB6F56"/>
<path d="M24.1183 24.3487C24.04 24.0888 23.9883 23.8287 23.9366 23.6204L24.015 23.5938C24.3533 24.4021 24.6133 25.0521 24.8483 25.6004C24.5883 25.3654 24.3266 24.9738 24.1183 24.3487Z" fill="#EB6F56"/>
<mask id="mask13_696_17" style="mask-type:luminance" maskUnits="userSpaceOnUse" x="26" y="19" width="7" height="15">
<path d="M26.0267 19.7344H32.8533V33.3477H26.0267V19.7344Z" fill="white"/>
</mask>
<g mask="url(#mask13_696_17)">
<path d="M26.125 26.8251V21.4068C26.125 20.7034 26.6983 20.1301 27.4017 20.1551C28.105 20.1551 28.6267 20.7551 28.6267 21.4584V21.9268C27.9483 21.0684 27.845 20.8068 27.4283 20.8068C26.7767 20.8068 26.49 21.5101 26.855 21.9534L28.6267 24.2201V26.0184H31.8833C32.2483 26.0184 32.56 26.3301 32.56 26.6951L31.8833 32.6884C31.8833 33.3134 30.9717 33.3651 30.8933 32.7668L31.075 27.7118H26.985C26.515 27.7118 26.125 27.3201 26.125 26.8251Z" fill="#EB6F56"/>
</g>
<path d="M27.4283 21.041C27.74 21.041 27.6617 21.041 29.695 23.646C30.685 23.646 31.335 23.646 32.3783 23.646C33.0033 23.646 33.0033 24.5843 32.3783 24.5843C31.205 24.5843 30.3717 24.5843 29.2517 24.5843C28.3917 23.4893 27.8183 22.761 27.0633 21.796C26.8017 21.4843 27.0367 21.041 27.4283 21.041Z" fill="#EB6F56"/>
<mask id="mask14_696_17" style="mask-type:luminance" maskUnits="userSpaceOnUse" x="34" y="24" width="7" height="2">
<path d="M34.9867 24.4277H40.095V25.7077H34.9867V24.4277Z" fill="white"/>
</mask>
<g mask="url(#mask14_696_17)">
<path d="M39.7 25.7046H35.035V24.793H38.9434C38.9434 24.9496 38.9434 25.0796 38.9434 25.2363H39.7517C39.7517 25.0796 39.7517 24.923 39.7517 24.793C40.2984 24.8446 40.2734 25.7046 39.7 25.7046Z" fill="#4FA9E2"/>
</g>
<path d="M29.46 25.7046C28.86 25.7046 28.86 24.793 29.46 24.793H34.1233V25.7046H29.46Z" fill="#4FA9E2"/>
<mask id="mask15_696_17" style="mask-type:luminance" maskUnits="userSpaceOnUse" x="36" y="19" width="5" height="6">
<path d="M36.6934 19.3066H40.095V24.8533H36.6934V19.3066Z" fill="white"/>
</mask>
<g mask="url(#mask15_696_17)">
<path d="M38.9434 24.7909C38.9967 21.1959 39.6217 20.3359 36.7034 20.2576V19.4492C40.4817 19.6059 39.8034 21.2742 39.7517 24.7909C39.725 24.7909 39.725 24.7909 39.7 24.7909H38.9434Z" fill="#4FA9E2"/>
</g>
<mask id="mask16_696_17" style="mask-type:luminance" maskUnits="userSpaceOnUse" x="38" y="24" width="3" height="2">
<path d="M38.8267 24.4277H40.095V25.2811H38.8267V24.4277Z" fill="white"/>
</mask>
<g mask="url(#mask16_696_17)">
<path d="M38.9433 25.2363C38.9433 25.0796 38.9433 24.923 38.9433 24.793H39.7C39.725 24.793 39.725 24.793 39.7516 24.793C39.7516 24.9496 39.7516 25.0796 39.7516 25.2363H38.9433Z" fill="#4FA9E2"/>
</g>
<path d="M36.1567 20.2592C36.365 20.2592 36.52 20.2592 36.7033 20.2592V21.7176C36.7033 22.3176 36.2083 22.8126 35.6083 22.8126V17.3926C36.2083 17.3926 36.7033 17.8876 36.7033 18.4876V19.4776C36.52 19.4776 36.3383 19.4776 36.1567 19.4776V20.2592Z" fill="#4FA9E2"/>
<path d="M36.1566 20.2595V19.4512C36.3383 19.4512 36.5199 19.4512 36.7033 19.4512V20.2595C36.5466 20.2595 36.3649 20.2595 36.1566 20.2595Z" fill="#4FA9E2"/>
<path d="M35.035 25.7031H34.15V32.2698H35.035V25.7031Z" fill="#4FA9E2"/>
<path d="M35.035 24.793H34.15V25.7046H35.035V24.793Z" fill="#4FA9E2"/>
<mask id="mask17_696_17" style="mask-type:luminance" maskUnits="userSpaceOnUse" x="34" y="32" width="3" height="2">
<path d="M34.9867 32.1074H36.6934V33.3474H34.9867V32.1074Z" fill="white"/>
</mask>
<g mask="url(#mask17_696_17)">
<path d="M35.2434 32.2715C35.8167 32.2715 36.3117 32.6365 36.495 33.1565H35.035V32.2715H35.2434Z" fill="#4FA9E2"/>
</g>
<mask id="mask18_696_17" style="mask-type:luminance" maskUnits="userSpaceOnUse" x="32" y="32" width="3" height="2">
<path d="M32.4266 32.1074H34.1333V33.3474H32.4266V32.1074Z" fill="white"/>
</mask>
<g mask="url(#mask18_696_17)">
<path d="M32.4566 33.1816C32.6383 32.6349 33.1333 32.2949 33.7066 32.2949H34.1233V33.1816H32.4566Z" fill="#4FA9E2"/>
</g>
<mask id="mask19_696_17" style="mask-type:luminance" maskUnits="userSpaceOnUse" x="34" y="32" width="2" height="2">
<path d="M34.1333 32.1074H35.4133V33.3474H34.1333V32.1074Z" fill="white"/>
</mask>
<g mask="url(#mask19_696_17)">
<path d="M35.035 32.2715H34.15V33.1565H35.035V32.2715Z" fill="#4FA9E2"/>
</g>
<path d="M64.12 50.3232C64.12 50.3232 63.155 49.9249 62.255 50.1915C62.195 50.6765 61.7866 51.0582 61.28 51.0715C61.2416 51.0732 61.2033 51.0715 61.165 51.0682C60.45 52.3515 61.6666 53.8599 61.6666 53.8599C61.6666 53.8599 61.8516 52.5915 62.815 52.4149C62.815 52.4149 61.82 50.6982 64.12 50.3232Z" fill="#5FA832"/>
<path d="M62.0767 50.0409C62.09 50.4959 61.73 50.8742 61.275 50.8859C60.82 50.8992 60.44 50.5409 60.4267 50.0875C60.415 49.6325 60.7733 49.2542 61.2283 49.2425C61.6833 49.2292 62.0633 49.5875 62.0767 50.0409Z" fill="#5FA832"/>
<path d="M67.3366 51.3172C67.3366 51.3172 67.4183 50.2788 66.8866 49.5072C66.405 49.5988 65.915 49.3305 65.745 48.8555C65.7316 48.8172 65.72 48.7805 65.7116 48.7438C64.2683 48.4622 63.205 50.0822 63.205 50.0822C63.205 50.0822 64.4716 49.8655 64.9383 50.7238C64.9383 50.7238 66.2683 49.2505 67.3366 51.3172Z" fill="#F68616"/>
<mask id="mask20_696_17" style="mask-type:luminance" maskUnits="userSpaceOnUse" x="65" y="47" width="3" height="3">
<path d="M65.7067 47.5898H67.84V49.6015H65.7067V47.5898Z" fill="white"/>
</mask>
<g mask="url(#mask20_696_17)">
<path d="M66.975 49.2909C66.545 49.4442 66.0733 49.2209 65.92 48.7925C65.7683 48.3642 65.9917 47.8942 66.4217 47.7409C66.85 47.5892 67.3217 47.8125 67.475 48.2409C67.6283 48.6675 67.4033 49.1392 66.975 49.2909Z" fill="#F68616"/>
</g>
<path d="M67.3833 54.675C67.3833 54.675 68.3983 54.4317 68.97 53.6883C68.7333 53.26 68.8383 52.7117 69.24 52.4033C69.27 52.38 69.3017 52.3583 69.335 52.3383C69.1567 50.8833 67.2833 50.375 67.2833 50.375C67.2833 50.375 67.8817 51.5083 67.2067 52.2167C67.2067 52.2167 69.0233 53.0217 67.3833 54.675Z" fill="#5D2891"/>
<mask id="mask21_696_17" style="mask-type:luminance" maskUnits="userSpaceOnUse" x="69" y="52" width="2" height="3">
<path d="M69.0183 52.375H70.6816V54.035H69.0183V52.375Z" fill="white"/>
</mask>
<g mask="url(#mask21_696_17)">
<path d="M69.2033 53.7029C68.925 53.3429 68.9933 52.8262 69.3533 52.5495C69.715 52.2729 70.2333 52.3395 70.51 52.6995C70.7883 53.0595 70.7217 53.5762 70.36 53.8529C70 54.1295 69.4817 54.0629 69.2033 53.7029Z" fill="#5D2891"/>
</g>
<path d="M64.1967 55.7554C64.1967 55.7554 64.7417 56.642 65.6267 56.9537C65.9633 56.597 66.5183 56.5287 66.935 56.8137C66.9683 56.8354 66.9983 56.8587 67.0267 56.8837C68.36 56.2654 68.265 54.332 68.265 54.332C68.265 54.332 67.37 55.2487 66.485 54.827C66.485 54.827 66.2783 56.7987 64.1967 55.7554Z" fill="#CF0F70"/>
<mask id="mask22_696_17" style="mask-type:luminance" maskUnits="userSpaceOnUse" x="65" y="56" width="3" height="3">
<path d="M65.53 56.8203H67.195V58.4686H65.53V56.8203Z" fill="white"/>
</mask>
<g mask="url(#mask22_696_17)">
<path d="M65.6833 57.1829C65.94 56.8079 66.4533 56.7112 66.83 56.9679C67.205 57.2245 67.3017 57.7362 67.045 58.1112C66.7867 58.4862 66.2733 58.5829 65.8983 58.3262C65.5217 58.0695 65.425 57.5579 65.6833 57.1829Z" fill="#CF0F70"/>
</g>
<path d="M62.18 53.0684C62.18 53.0684 61.5017 53.86 61.4767 54.795C61.9217 55.0034 62.1584 55.5084 62.0167 55.9934C62.005 56.03 61.9917 56.0667 61.9767 56.1017C62.98 57.175 64.795 56.4867 64.795 56.4867C64.795 56.4867 63.6434 55.92 63.7717 54.9517C63.7717 54.9517 61.8267 55.365 62.18 53.0684Z" fill="#4FA9E2"/>
<path d="M61.2784 54.9165C61.715 55.0448 61.965 55.5015 61.8367 55.9381C61.7084 56.3731 61.25 56.6231 60.8134 56.4948C60.375 56.3665 60.125 55.9098 60.2534 55.4731C60.3817 55.0381 60.8417 54.7881 61.2784 54.9165Z" fill="#4FA9E2"/>
</svg>
