<svg width="24" height="24" viewBox="0 0 24 24" fill="none" xmlns="http://www.w3.org/2000/svg">
<path d="M10.5103 5.84372L8.31403 1.52437C8.2195 1.33841 8.35471 1.11821 8.56353 1.11821H15.4367C15.6455 1.11821 15.7806 1.33827 15.686 1.52424L13.49 5.84375C13.35 6.11904 13.4599 6.45559 13.7353 6.59548C14.0107 6.73536 14.3475 6.62559 14.4874 6.3503L16.6834 2.03095C17.1565 1.10117 16.4805 0 15.4367 0H8.56356C7.51991 0 6.84392 1.10095 7.31661 2.0309L9.51288 6.35032C9.65284 6.62559 9.98961 6.73536 10.265 6.59545C10.5404 6.45554 10.6503 6.11898 10.5103 5.84372H10.5103Z" fill="#FFF7F7"/>
<path d="M17.8465 22.882C20.6272 22.882 22.8812 20.6292 22.8812 17.8501V16.672C22.8812 11.292 18.4746 6.88774 13.0915 6.88774H10.9085C5.52544 6.88774 1.11882 11.292 1.11882 16.672V17.8501C1.11882 20.6291 3.373 22.882 6.15349 22.882H17.8465ZM17.8465 24.0002H6.15349C2.75511 24.0002 0 21.2467 0 17.8501V16.672C0 10.6744 4.90752 5.76953 10.9085 5.76953H13.0915C19.0925 5.76953 24 10.6744 24 16.672V17.8501C24 21.2468 21.2451 24.0002 17.8465 24.0002Z" fill="#FFF7F7"/>
</svg>
