<svg width="26" height="26" viewBox="0 0 26 26" fill="none" xmlns="http://www.w3.org/2000/svg">
<path d="M19 25H7C2.2 25 1 23.6666 1 18.3334V7.66666C1 2.33333 2.2 1 7 1H19C23.8 1 25 2.33333 25 7.66666V18.3334C25 23.6666 23.8 25 19 25Z" stroke="white" stroke-width="1.75" stroke-linecap="round" stroke-linejoin="round"/>
<path d="M15.3999 7.66602H21.3999" stroke="white" stroke-width="1.75" stroke-linecap="round" stroke-linejoin="round"/>
<path d="M16.6001 13H21.4" stroke="white" stroke-width="1.75" stroke-linecap="round" stroke-linejoin="round"/>
<path d="M19 18.334H21.4" stroke="white" stroke-width="1.75" stroke-linecap="round" stroke-linejoin="round"/>
<path d="M8.80041 12.0533C9.99993 12.0533 10.9724 10.9727 10.9724 9.6399C10.9724 8.30705 9.99993 7.22656 8.80041 7.22656C7.60085 7.22656 6.62842 8.30705 6.62842 9.6399C6.62842 10.9727 7.60085 12.0533 8.80041 12.0533Z" stroke="white" stroke-width="1.75" stroke-linecap="round" stroke-linejoin="round"/>
<path d="M13.0001 18.7723C12.8321 16.839 11.4521 15.319 9.71213 15.1457C9.11206 15.079 8.5001 15.079 7.8881 15.1457C6.1481 15.3323 4.76809 16.839 4.6001 18.7723" stroke="white" stroke-width="1.75" stroke-linecap="round" stroke-linejoin="round"/>
</svg>
